<?xml version="1.0" encoding="utf-8"?>
<!-- Generator: Adobe Illustrator 23.0.1, SVG Export Plug-In . SVG Version: 6.00 Build 0)  -->
<svg version="1.1" id="Layer_1" xmlns="http://www.w3.org/2000/svg" xmlns:xlink="http://www.w3.org/1999/xlink" x="0px" y="0px"
	 viewBox="0 0 236.9 292.84" style="enable-background:new 0 0 236.9 292.84;" xml:space="preserve">
<style type="text/css">
	.st0{fill:#868686;}
</style>
<g>
	<path class="st0" d="M17.76,132.9c8.71-0.82,16.8,0.11,24.94,0.71c26.2,1.93,51.92-0.5,76.68-9.78
		c11.06-4.14,20.48-10.65,26.02-21.53c3.79-7.46,2.63-9.29-5.79-9.32c-29.25-0.07-58.5-0.35-87.74,0.15
		c-9.06,0.16-10.68-3.5-10.69-11.49c-0.01-8.06,1.76-11.59,10.75-11.43c28.35,0.51,56.72,0.21,85.08,0.17
		c9.54-0.02,9.97-0.69,6.97-9.47c-8.93-26.17-9.28-26.42-36.41-26.43c-19.2,0-38.41-0.37-57.6,0.14c-9.43,0.25-8.51-5.5-8.6-11.54
		c-0.09-6.3-0.26-11.33,8.88-11.27c52.29,0.34,104.58,0.32,156.87,0.02c9.25-0.05,8.76,5.42,8.84,11.57
		c0.09,6.43-0.2,11.61-9.2,11.23c-13.86-0.58-27.77,0.03-41.65-0.21c-6.19-0.11-7.3,1.85-4.5,7.22c3.7,7.09,6.35,14.64,8.27,22.39
		c1.21,4.87,3.98,6.58,8.91,6.45c10.04-0.26,20.1,0.2,30.13-0.13c9.01-0.29,7.89,5.93,7.96,11.46c0.07,5.7,0.69,11.58-8.19,11.22
		c-9.73-0.4-19.5,0.06-29.24-0.11c-4.61-0.08-7.1,1.77-8.05,6.3c-5.17,24.65-22.56,37.84-44.35,46.63
		c-15.75,6.35-32.39,8.92-49.18,10.64c-2,0.2-3.99,0.5-7.92,1.01c7.84,8.82,14.68,16.66,21.67,24.36
		c26.02,28.64,52.11,57.22,78.09,85.89c2.04,2.25,6.08,4.28,4.45,7.85c-1.37,3-5.34,1.2-8.12,1.73
		c-14.79,2.79-24.25-4.11-33.77-15.08c-35.62-41.04-72.28-81.17-108.52-121.68C20.88,138.48,18.47,136.63,17.76,132.9z"/>
</g>
</svg>
