<?xml version="1.0" encoding="utf-8"?>
<!-- Generator: Adobe Illustrator 23.0.1, SVG Export Plug-In . SVG Version: 6.00 Build 0)  -->
<svg version="1.1" id="Layer_1" xmlns="http://www.w3.org/2000/svg" xmlns:xlink="http://www.w3.org/1999/xlink" x="0px" y="0px"
	 viewBox="0 0 523 377" style="enable-background:new 0 0 523 377;" xml:space="preserve">
<style type="text/css">
	.st0{fill:#757575;}
</style>
<g>
	<path class="st0" d="M204.5,267.66c5-5.92,9.53-11.26,14.03-16.62c4.44-5.3,8.87-10.61,13.27-15.95c4.45-5.41,9.93-8.52,17.11-7.68
		c1.92,0.23,2.5-1.09,3.31-2.18c13.98-18.73,27.92-37.48,41.89-56.22c20.73-27.82,41.49-55.62,62.16-83.49
		c1.45-1.96,2.38-2.41,4.36-0.7c2.43,2.1,5.06,4,7.8,5.67c2.35,1.43,2.36,2.59,0.74,4.72c-9,11.88-17.87,23.86-26.78,35.81
		c-25.66,34.41-51.3,68.83-77,103.21c-1.33,1.78-1.77,3.18-0.95,5.45c2.22,6.14,0.63,11.88-3.36,16.74
		c-16.57,20.18-33.11,40.4-50.03,60.28c-9.86,11.59-23.61,9.72-30.49-3.86c-4.1-8.1-5.75-17.13-8.67-25.68
		c-2.04-5.97-3.97-11.98-5.64-18.06c-0.77-2.8-2.01-3.74-4.94-3.64c-6.25,0.23-6.26,0.05-6.25,6.2c0.06,30.53,0.08,61.06,0.27,91.6
		c0.02,3.1-0.68,4.01-3.9,4c-47.23-0.11-94.47-0.11-141.7,0c-3.17,0.01-3.94-0.83-3.93-3.97c0.11-35.19,0.03-70.37,0.05-105.56
		c0-7.78,0.99-15.45,3.55-22.84c6.22-18.01,21.65-29.64,40.84-30.82c17.04-1.05,34.1-0.39,51.15-0.44
		c14.19-0.04,28.39-0.59,42.56,0.32c25.96,1.67,48.69,20.6,55.5,46C200.98,255.67,202.68,261.32,204.5,267.66z"/>
	<path class="st0" d="M302.8,8.63c65.37,0,130.74,0,196.11,0.01c8.59,0,14.06,5.45,14.07,14.08c0.02,66.44,0.01,132.89,0.02,199.33
		c0,43.9,0.01,87.8,0,131.7c0,7.85-3.93,13.03-11.05,14.55c-1.15,0.25-2.37,0.28-3.55,0.28c-101.76,0.01-203.51-0.01-305.27,0.06
		c-2.97,0-3.89-0.8-3.8-3.75c0.2-6.44,0.22-12.89,0.02-19.32c-0.09-2.91,0.93-3.57,3.66-3.56c25.65,0.08,51.29,0.02,76.94,0.01
		c57.02-0.01,114.04,0,171.06,0c13.96,0,27.91-0.04,41.87,0.1c2.85,0.03,3.65-0.88,3.64-3.68c-0.08-58.21-0.08-116.42-0.09-174.64
		c-0.01-41.27-0.01-82.55-0.01-123.82c0-4.9,0-4.91-4.73-4.91c-119.53,0.01-239.06,0.03-358.58-0.06c-3.6,0-4.68,0.84-4.56,4.52
		c0.29,8.82,0,17.65,0.15,26.48c0.04,2.56-0.5,3.58-3.3,3.5c-6.79-0.2-13.6-0.16-20.4-0.04c-2.2,0.04-2.85-0.64-2.84-2.83
		c0.08-14.91-0.05-29.82,0.06-44.73c0.06-8.07,5.72-13.29,14.1-13.29c63.46,0,126.92,0.01,190.39,0.02
		C298.74,8.63,300.77,8.63,302.8,8.63z"/>
	<path class="st0" d="M105.83,100.96c25.31,0.02,46.05,20.76,46.22,46.23c0.17,25.53-20.95,46.71-46.57,46.71
		c-25.91,0-46.39-20.8-46.35-47.07C59.18,121.23,79.84,100.94,105.83,100.96z"/>
</g>
</svg>
