<?xml version="1.0" encoding="utf-8"?>
<!-- Generator: Adobe Illustrator 23.0.1, SVG Export Plug-In . SVG Version: 6.00 Build 0)  -->
<svg version="1.1" id="Layer_1" xmlns="http://www.w3.org/2000/svg" xmlns:xlink="http://www.w3.org/1999/xlink" x="0px" y="0px"
	 viewBox="0 0 416 476" style="enable-background:new 0 0 416 476;" xml:space="preserve">
<style type="text/css">
	.st0{fill:#757575;}
</style>
<path class="st0" d="M97.8,344.47c6.46-2.04,10.71-11.32,8.76-19.13c-2.22-8.88-9.87-14.91-19.43-14.98
	c-13.97-0.11-27.94-0.03-41.91-0.02c-8.8,0-11.73-2.93-11.75-11.85c-0.01-9.41-0.02-18.82,0.01-28.23c0.02-7.29,2.33-9.73,9.72-9.79
	c14.25-0.11,28.51,0,42.77-0.09c10.3-0.06,17.79-6.06,20.47-16.13c2.22-8.38-1.87-17.8-9.96-22.64c-3.25-1.95-6.83-2.69-10.63-2.67
	c-14.11,0.05-28.23,0.03-42.34,0.02c-7.95-0.01-10.09-2.2-10.08-10.18c0.01-11.55-0.03-23.09,0.02-34.64
	c0.03-7.76,3.17-11.03,10.85-11.09c14.25-0.11,28.51,0.04,42.77-0.13c11.97-0.14,20.5-8.85,19.87-19.96
	c-0.59-10.39-8.66-18-19.58-18.11c-13.97-0.14-27.94-0.03-41.91-0.08c-9.42-0.04-12.14-2.66-11.98-11.9
	c0.21-12.1-0.94-24.26,0.59-36.3c2.39-18.71,12.43-33.13,26.84-44.62c12.66-10.09,26.98-14.81,43.53-14.72
	c77.41,0.38,154.82,0.22,232.22,0.14c20.69-0.02,36.6,9.47,49.67,24.49c11.73,13.48,16.48,29.29,16.42,47.27
	c-0.3,99.22-0.58,198.44,0.1,297.65c0.19,27.28-19.72,57.07-47.72,66.41c-5.46,1.82-10.98,2.83-16.76,2.83
	c-79.12-0.04-158.24-0.05-237.36-0.02c-22.3,0.01-39.2-10.71-52.88-27.13c-10.72-12.86-15.43-27.99-14.77-44.83
	c0.33-8.4,0.06-16.82,0.08-25.23c0.01-7.01,3.14-10.21,10.17-10.23c14.54-0.04,29.08,0.05,43.62-0.04c3.97-0.02,8.05-0.2,10.6-4.09
	L97.8,344.47z M389.33,236.55c-0.01,0-0.02,0-0.03,0c0-49.75-0.17-99.51,0.12-149.26c0.07-11.6-2.5-22.07-9.16-31.39
	c-10.57-14.8-23.9-25.33-43.13-25.35c-77.69-0.09-155.39,0.08-233.08-0.21c-14.42-0.05-26.46,4.76-37.09,13.88
	c-9.99,8.57-17.37,18.99-19.59,32.2c-1.68,10.01-0.17,20.2-0.7,30.3c-0.2,3.84,1.38,4.89,5.01,4.84
	c11.97-0.16,23.95-0.26,35.92,0.01c12.44,0.28,22.63,5.47,28.44,16.65c11.96,23-3.46,47.86-29.4,47.98
	c-11.97,0.05-23.95,0.08-35.92-0.03c-2.93-0.03-4.09,0.98-4.03,3.97c0.14,6.7,0.3,13.41-0.02,20.1c-0.21,4.46,1.53,5.59,5.72,5.51
	c11.4-0.23,22.81-0.15,34.21-0.04c6.84,0.07,13.26,1.84,18.88,5.87c12.58,9,17.64,24.06,13.01,38.53
	c-4.63,14.47-17.37,23.58-33.06,23.6c-11.4,0.02-22.81,0.09-34.21-0.03c-3.28-0.04-4.67,1.05-4.54,4.44
	c0.19,4.7,0.24,9.42,0.01,14.11c-0.18,3.72,1.17,4.99,4.93,4.94c12.26-0.18,24.53-0.34,36.78,0.02
	c11.76,0.34,21.26,5.47,27.17,15.82c12.82,22.44-2.51,48.65-28.39,48.83c-11.97,0.08-23.95,0.09-35.92,0
	c-3.29-0.02-4.59,1.23-4.54,4.55c0.13,8.12,0.02,16.25,0.02,24.38c0,5.94,1.23,11.64,3.95,16.9c11.76,22.75,29.33,35.51,56.09,35.35
	c76.55-0.45,153.1-0.17,229.65-0.2c3.27,0,6.54-0.02,9.78-0.78c22.36-5.26,43.52-29.48,43.27-53.67
	C388.97,337.77,389.33,287.16,389.33,236.55z"/>
<path class="st0" d="M97.84,344.43c-5.41,2.2-11.09,2.07-16.79,2.05c-16.94-0.06-33.87,0.01-50.81-0.02
	c-10.36-0.02-17.59-6.4-18.16-15.91c-0.57-9.53,5.84-16.87,15.96-18.28c0.56-0.08,1.13-0.21,1.69-0.21
	c19.2,0.01,38.4-0.06,57.59,0.09c7.96,0.06,14.18,3.52,16.94,11.29c2.64,7.43,0.6,13.98-5.12,19.4c-0.51,0.48-0.91,1.09-1.36,1.64
	C97.8,344.47,97.84,344.43,97.84,344.43z M58.9,325.59c0,0.01,0,0.02,0,0.03c-9.24,0-18.48,0.02-27.72-0.01
	c-2.44-0.01-4.63,0.38-5.45,3.05c-0.81,2.62,1.47,4.64,5.47,4.65c18.34,0.03,36.68-0.02,55.02-0.02c2.97,0,5.87-0.66,5.76-4.13
	c-0.11-3.25-3.04-3.59-5.77-3.58C77.09,325.6,68,325.59,58.9,325.59z"/>
<path class="st0" d="M58.73,126.86c9.83,0,19.66-0.05,29.49,0.01c9.3,0.06,16.75,7.05,17.25,16.08c0.51,9.06-6.08,16.79-15.34,17.96
	c-1.83,0.23-3.7,0.51-5.53,0.42c-18.78-0.99-37.58,0.7-56.37-0.41c-8.99-0.53-16.04-7.54-16.14-16.69
	c-0.1-9.63,6.98-17.25,16.28-17.33c10.12-0.09,20.23-0.02,30.35-0.02C58.73,126.87,58.73,126.86,58.73,126.86z M58.51,147.69
	c0,0.01,0,0.03,0,0.04c5.98,0,11.95,0.01,17.93,0c3.98-0.01,7.97,0.05,11.95-0.09c2.1-0.07,3.57-1.43,3.69-3.47
	c0.13-2.28-1.31-3.67-3.59-4.01c-0.84-0.13-1.7-0.15-2.55-0.15c-18.22,0.02-36.43,0.05-54.65,0.06c-2.88,0-5.81,0.24-5.74,4.01
	c0.07,3.57,2.99,3.61,5.64,3.62C40.29,147.69,49.4,147.69,58.51,147.69z"/>
<path class="st0" d="M59.03,223.82c9.41,0,18.82-0.15,28.22,0.04c12.01,0.24,20.25,10.13,17.7,20.95
	c-1.57,6.69-10.3,13.45-18.03,13.5c-18.67,0.12-37.35,0.11-56.02-0.02c-7.02-0.05-15.8-6.17-17.94-12.05
	c-2.18-5.97-0.23-13.48,4.75-17.98c3.96-3.58,8.89-4.33,13.95-4.37c9.12-0.07,18.25-0.02,27.37-0.02
	C59.03,223.85,59.03,223.84,59.03,223.82z M58.93,245.08c0,0.02,0,0.03,0,0.05c9.26,0,18.53-0.02,27.79,0.01
	c2.72,0.01,5.21-0.85,5.29-3.74c0.08-2.79-2.42-3.91-4.96-4.37c-0.55-0.1-1.14-0.05-1.71-0.05c-17.82-0.01-35.63,0.01-53.45-0.05
	c-3.19-0.01-6.18,0.76-6.23,4.26c-0.06,3.91,3.4,3.89,6.33,3.89C40.97,245.09,49.95,245.08,58.93,245.08z"/>
<path class="st0" d="M142.93,301.56c0-5.13,0.07-10.26-0.01-15.39c-0.1-6.5,2.87-11.06,8.38-14.31
	c12.91-7.62,26.77-13.32,40.17-19.96c2.17-1.08,4.39-2.05,6.49-3.25c3.54-2.02,4.42-5.42,1.68-8.49c-4.08-4.58-6.4-9.7-6.68-15.78
	c-0.06-1.18-0.52-2.09-1.33-3.02c-8.08-9.15-9.01-18.31-2.87-28.43c1.13-1.87,1.26-3.85,1.03-5.77
	c-2.38-19.75,13.15-39.91,37.44-40.02c20.19-0.1,35.78,11.58,38.84,30.63c1.22,7.6,1.42,15.1,4.39,22.6
	c2.89,7.3,0.31,14.92-5.78,20.62c-1.43,1.34-2.2,2.79-2.49,4.76c-0.77,5.22-3.17,9.68-6.68,13.61c-3.39,3.79-2.62,7.7,1.99,9.87
	c14.69,6.92,29.34,13.95,44.16,20.58c8.93,4,13.66,9.92,12.96,20.2c-0.6,8.79-0.11,17.66-0.13,26.5c-0.01,6.45-1.89,9.13-8.12,8.84
	c-12.55-0.58-25.07,0.88-37.59,0.08c-7-0.45-13.95,0.08-20.92,0.09c-17.22,0.04-34.45-0.47-51.67-0.31
	c-14.67,0.13-29.33,0.29-44-0.06c-8.24-0.19-9.23-1.07-9.24-9.48C142.92,310.96,142.92,306.26,142.93,301.56z M156.14,297.87
	c0.01,0,0.01,0,0.02,0c0,1.43,0,2.85,0,4.28c0,1.57-0.01,3.14,0,4.7c0.02,5.46,0.3,5.84,5.85,5.56c18.24-0.91,36.48-0.39,54.72-0.37
	c26.22,0.02,52.45-0.49,78.67,0.39c5.76,0.19,5.76,0.03,5.76-5.92c0-5.56-0.27-11.14,0.11-16.67c0.28-4.11-1.38-6.18-4.94-7.82
	c-14.63-6.72-29.23-13.52-43.71-20.56c-13.69-6.66-12.17-4.38-12.22-18.96c0-0.71,0.07-1.43,0-2.14c-0.33-3.42,0.93-6.04,3.65-8.16
	c3.79-2.96,5.91-6.78,5.88-11.77c-0.03-4.08,1.34-7.28,5.45-9.32c3.38-1.68,4.08-7.24,1.25-9.11c-4.41-2.93-4.43-6.78-3.78-11.27
	c0.76-5.22,1.21-10.46-1.02-15.56c-4.9-11.22-15.69-16.52-29.4-14.26c-9.51,1.56-15.45,7.14-18.69,16.12
	c-1.95,5.43-0.47,10.73-0.11,16.06c0.23,3.45-0.43,6.05-3.26,8.22c-3.35,2.57-3.18,7.63,0.5,9.57c3.63,1.92,5.11,4.61,5.18,8.55
	c0.1,5.14,1.44,9.83,5.62,13.34c1.75,1.47,2.28,3.62,2.36,5.79c0.13,3.84,0.14,7.69,0.09,11.54c-0.05,4.07-1.84,6.7-5.77,8.53
	c-15.37,7.15-30.53,14.73-45.87,21.94c-4.64,2.18-7.38,4.95-6.4,10.46C156.47,293.25,156.14,295.59,156.14,297.87z"/>
</svg>
