<?xml version="1.0" encoding="utf-8"?>
<!-- Generator: Adobe Illustrator 23.0.1, SVG Export Plug-In . SVG Version: 6.00 Build 0)  -->
<svg version="1.1" id="Layer_1" xmlns="http://www.w3.org/2000/svg" xmlns:xlink="http://www.w3.org/1999/xlink" x="0px" y="0px"
	 viewBox="0 0 523 377" style="enable-background:new 0 0 523 377;" xml:space="preserve">
<style type="text/css">
	.st0{fill:#757575;}
</style>
<g>
	<path class="st0" d="M264.86,11.84c72.96,0,145.92-0.01,218.88,0.01c18.39,0,24.4,6.78,24.28,25.29
		c-0.31,50.02-0.81,100.04,0.26,150.06c0.13,5.83-0.56,11.86-7.94,11.92c-7.94,0.07-8.5-6.7-8.54-12.46
		c-0.18-31.27-0.1-62.54-0.11-93.81c0-13.16-0.01-13.17-13.33-13.17c-142.53,0-285.07,0-427.6,0c-12.59,0-12.61,0.01-12.61,12.33
		c0,82.08,0,164.16,0.01,246.24c0,11.62,0.04,11.65,11.78,11.66c63.32,0.01,126.64,0,189.96,0.03c3.37,0,6.82,0.04,10.09,0.73
		c3.96,0.84,6.42,3.57,6.17,7.85c-0.24,4.21-2.76,6.67-6.91,7.2c-2.31,0.3-4.68,0.28-7.02,0.28c-65.66,0-131.33,0-196.99-0.03
		c-16.97-0.01-23.14-6.12-23.14-23.04c-0.02-98.5-0.01-196.99-0.01-295.49c0-5.99-0.39-12,0.07-17.95
		c0.82-10.63,7.7-17.15,18.35-17.52c8.59-0.3,17.2-0.11,25.79-0.11C132.49,11.84,198.68,11.84,264.86,11.84z M264.93,63.61
		c68.27,0,136.54,0,204.82,0c21.97,0,21.97,0,21.96-21.72c-0.01-13.91-0.01-13.92-13.75-13.92c-142.02,0-284.03,0-426.05,0
		c-2.08,0-4.17,0.1-6.25,0.03c-5.32-0.19-7.55,2.51-7.48,7.65c0.08,5.73-0.03,11.47-0.01,17.2c0.04,10.71,0.06,10.76,11,10.76
		C121.09,63.61,193.01,63.61,264.93,63.61z"/>
	<path class="st0" d="M251.3,205.82c0.4,24-0.47,51.6,0.63,79.2c0.4,10.12-0.3,20.29-0.75,30.42c-0.39,8.9-6.31,15.83-15.07,17.52
		c-4.32,0.83-8.79,1.22-13.19,1.23c-47.15,0.08-94.3,0.07-141.44,0.01c-3.63,0-7.29-0.32-10.88-0.89
		c-10.64-1.67-16.63-8.21-17.14-18.99c-1.02-21.57-0.93-43.1-0.32-64.73c1.11-38.78,0.32-77.62,0.32-116.43
		c0-4.69-0.05-9.38,0.02-14.07c0.24-14.78,7.95-22.52,22.92-22.57c31.78-0.11,63.56-0.04,95.34-0.04c18.23,0,36.47-0.03,54.7,0.01
		c17.71,0.04,24.82,7.02,24.84,24.46C251.33,148.05,251.3,175.14,251.3,205.82z M234.57,281.07c0.24-4,0.61-7.35,0.61-10.71
		c0.05-48.96,0.07-97.93,0.03-146.89c-0.01-10.31-0.65-10.89-11.26-10.9c-47.66-0.02-95.32-0.02-142.98,0
		c-10.94,0-11.41,0.46-11.41,11.51c-0.03,49.74-0.01,99.49,0,149.23c0,1.56,0.01,3.13,0.09,4.69c0.11,2.4,1.09,3.2,3.54,2.24
		c15.23-5.99,30.56-11.76,45.73-17.89c6.13-2.48,6.87-6.33,2.2-11.46c-3.94-4.33-7.14-9.04-8.99-14.49
		c-1.61-4.74-4.35-7.77-8.8-10.22c-9.32-5.14-12.9-15.42-9.58-25.54c0.88-2.7,2.53-5.18,1.83-8.23
		c-2.67-11.59-1.23-23.35-1.24-35.03c-0.02-17.81,13.48-31.9,31.25-32.56c13.26-0.49,26.56-0.27,39.84,0
		c8.31,0.17,15.26,3.33,19,11.38c1.43,3.08,3.62,4.77,6.94,5.63c9.44,2.45,13.31,9.49,14.05,18.5c0.45,5.43,0.28,10.93,0.16,16.4
		c-0.17,7.59,0.35,14.68,4.47,21.69c4.7,8,3.36,19.05-4.36,24.08c-8.99,5.86-12.8,14.4-17.57,22.82c-1.01,1.78-2.61,3.22-3.96,4.81
		c-5.42,6.41-4.75,9.56,3.08,12.64C202.69,268.86,218.21,274.76,234.57,281.07z M189.3,185.08c0-7.81,0.14-15.47-0.06-23.12
		c-0.09-3.38-2.56-4.93-5.73-5.34c-6.33-0.82-10.45-4.29-12.5-10.3c-1.4-4.1-4.6-5.45-8.54-5.46c-11.98-0.04-23.98-0.35-35.94,0.12
		c-9.62,0.38-15.72,7.01-16.13,16.75c-0.31,7.28,0.02,14.59-0.13,21.88c-0.11,5.25,2.14,7.59,7.47,7.52
		c11.98-0.15,23.96-0.05,35.95-0.07c4.94-0.01,9.15-1.94,12.68-5.26c12.38-11.62,12.37-11.64,21.27,2.91
		C187.71,184.86,188.09,184.83,189.3,185.08z M151.33,317.76c0-0.17,0-0.33,0-0.5c2.34,0,4.69,0.06,7.03-0.01
		c23.16-0.72,46.34,1.14,69.49-0.49c6.7-0.47,8.54-3.35,6.52-9.7c-0.9-2.81-2.91-4.86-4.71-7.09c-4.93-6.09-12.39-7.27-19-10.08
		c-14.92-6.35-14.93-6.32-22.27,7.76c-0.96,1.85-1.99,3.66-2.99,5.49c-6,10.98-11.06,12.87-20.89,5.43
		c-8.9-6.74-15.58-7.51-24.5,0.37c-8.57,7.57-14.47,5.39-19.94-4.62c-12.02-22-12.03-22.03-35.02-11.26
		c-2.57,1.21-5.14,2.63-7.32,4.44c-3.82,3.17-7.45,6.71-7.94,12.07c-0.49,5.27,1.27,8.33,7.38,8.29
		C101.89,317.66,126.61,317.76,151.33,317.76z M143.58,203.08c-5.55,1.28-14.48-3.27-17.62,2.45c-3.86,7.02-2.03,16.29,0.94,24.27
		c4.09,11.02,13.85,17.2,26.27,17.03c11.61-0.16,21.24-6.93,24.98-17.78c2.87-8.33,2.33-16.99,1.65-25.53
		c-0.31-3.9-2.94-7.51-7.44-5.06C163.43,203.31,153.94,203.46,143.58,203.08z"/>
	<path class="st0" d="M386.35,366c-32.81,0-65.63,0-98.44-0.01c-2.34,0-4.7,0.02-7.02-0.24c-4.11-0.45-6.8-2.7-7.16-6.95
		c-0.39-4.68,2.3-7.44,6.59-8.26c3.29-0.63,6.73-0.61,10.1-0.61c63.28-0.03,126.57-0.02,189.85-0.03c11.34,0,11.41-0.07,11.42-11.23
		c0.03-35.15-0.01-70.3,0.07-105.45c0.01-3.61,0.28-7.31,1.09-10.81c0.86-3.74,3.85-5.51,7.64-5.34c3.89,0.17,6.18,2.47,6.96,6.22
		c0.26,1.26,0.29,2.59,0.29,3.89c0.01,39.83,0.11,79.66-0.06,119.49c-0.05,12.22-7.37,19.21-19.76,19.25
		c-33.85,0.11-67.71,0.04-101.57,0.04C386.35,365.97,386.35,365.98,386.35,366z"/>
	<path class="st0" d="M371.99,125.06c-16.91,0-33.81,0.02-50.72-0.02c-2.33,0-4.72,0.04-6.99-0.42c-3.97-0.8-6.66-3.36-6.76-7.47
		c-0.1-4.15,2.57-6.73,6.48-7.7c1.98-0.49,4.13-0.48,6.2-0.48c35.11-0.03,70.22-0.01,105.33-0.03c5.82,0,11.85,0.62,11.97,7.92
		c0.12,7.3-5.78,8.21-11.68,8.2C407.88,125.04,389.94,125.06,371.99,125.06z"/>
	<path class="st0" d="M407.23,254.58c-15.61,0-31.22-0.04-46.82,0.02c-6.08,0.02-10.56-2.22-10.33-8.82
		c0.23-6.32,5.12-7.83,10.56-7.8c30.64,0.18,61.29,0.37,91.93,0.6c5.9,0.05,13.43-1.11,13.3,7.74c-0.12,8.22-7.21,8.26-13.36,8.28
		c-15.09,0.05-30.19,0.01-45.28,0.01C407.23,254.6,407.23,254.59,407.23,254.58z"/>
	<path class="st0" d="M408,189.38c-15.62,0-31.24-0.05-46.86,0.03c-5.76,0.03-11.07-1.18-11.12-7.96c-0.05-6.96,5.8-8,11.2-8.02
		c31.24-0.12,62.48-0.06,93.72-0.04c1.04,0,2.09,0.09,3.11,0.27c4.94,0.88,8.37,3.45,7.95,8.84c-0.4,5.12-4.11,6.9-8.79,6.91
		c-16.4,0.03-32.8,0.01-49.2,0.01C408,189.41,408,189.39,408,189.38z"/>
	<path class="st0" d="M408.79,302.87c14.82,0,29.65-0.01,44.47,0c2.85,0,5.76-0.23,8.38,1.25c2.86,1.61,5.3,3.85,5.07,7.28
		c-0.25,3.71-2.81,6.13-6.41,6.96c-2.25,0.52-4.64,0.58-6.96,0.58c-30.17,0.04-60.34,0.04-90.51,0.04c-1.3,0-2.61,0.03-3.9-0.09
		c-4.89-0.43-8.91-2.34-8.8-7.87c0.1-5.23,3.58-7.91,8.72-8.04c6.76-0.16,13.52-0.11,20.28-0.12
		C389.02,302.86,398.9,302.87,408.79,302.87z"/>
	<path class="st0" d="M308.91,318.89c-5.73,0-11.46,0.13-17.18-0.04c-5.15-0.15-8.49-2.73-8.49-8.16c0.01-5.15,3.41-7.55,8.1-7.63
		c11.45-0.2,22.91-0.18,34.36-0.02c5.16,0.07,8.49,2.92,8.5,8.23c0.01,5.62-3.88,7.54-8.89,7.63c-5.47,0.09-10.94,0.02-16.4,0.02
		C308.91,318.91,308.91,318.9,308.91,318.89z"/>
	<path class="st0" d="M308.61,189.48c-5.7,0.01-11.4-0.05-17.09,0.03c-4.58,0.07-7.54-1.88-8.06-6.54c-0.54-4.8,1.55-8.54,6.43-9.03
		c12.37-1.23,24.83-1.09,37.21-0.08c4.75,0.39,7.26,4.06,6.65,8.88c-0.56,4.44-3.43,6.76-8.05,6.73
		C320,189.44,314.3,189.47,308.61,189.48z"/>
	<path class="st0" d="M308.25,254.54c-5.45,0-10.9,0.12-16.35-0.04c-5.13-0.15-8.46-2.65-8.43-8.11c0.03-5.1,3.26-7.61,7.99-7.69
		c11.42-0.2,22.84-0.17,34.26-0.01c4.77,0.07,7.95,2.57,8.13,7.6c0.19,5.12-3.04,7.71-7.71,7.99c-5.94,0.36-11.93,0.09-17.89,0.09
		C308.25,254.43,308.25,254.49,308.25,254.54z"/>
</g>
</svg>
