<?xml version="1.0" encoding="utf-8"?>
<!-- Generator: Adobe Illustrator 23.0.1, SVG Export Plug-In . SVG Version: 6.00 Build 0)  -->
<svg version="1.1" id="Layer_1" xmlns="http://www.w3.org/2000/svg" xmlns:xlink="http://www.w3.org/1999/xlink" x="0px" y="0px"
	 viewBox="0 0 416 408" style="enable-background:new 0 0 416 408;" xml:space="preserve">
<style type="text/css">
	.st0{fill:#757575;}
</style>
<g>
	<path class="st0" d="M10.89,256.22c1.84-8.06,4.61-15.6,10.77-21.55c5.5-5.31,11.86-8.22,19.55-8.03c0.91,0.02,1.83-0.1,2.72,0.02
		c4.92,0.67,8.11-0.96,11.17-5.36c14.51-20.83,53.16-19.67,64.43,7.13c1.73,4.12,2.7,8.34,2.69,12.83
		c-0.04,20.6,0.06,41.21-0.04,61.81c-0.08,18.1-15.1,33.39-33.2,34.12c-7.2,0.29-14.26-0.16-20.89-3.31
		c-2.23-1.06-2.72-0.19-2.7,1.88c0.06,6.22-0.21,12.45,0.11,18.65c0.52,10.02,10.15,18.97,20.7,19.04
		c25.53,0.16,51.05,0.04,76.58,0.1c2.41,0.01,3.73-0.94,4.85-3.01c2.48-4.59,6.56-7.03,11.72-7.06c16.46-0.1,32.91-0.04,49.37,0.01
		c4.93,0.01,9.18,1.67,12.05,5.9c5.75,8.48,0.15,20.33-10.19,20.56c-17.35,0.4-34.72,0.13-52.08,0.05
		c-3.52-0.02-6.75-1.46-8.85-4.23c-2.05-2.72-4.59-2.88-7.52-2.88c-23.71,0.04-47.42,0.08-71.13-0.02
		c-8.25-0.03-16.25-1.16-23.05-6.62c-7.67-6.15-11.64-14.12-11.94-23.84c-0.23-7.38-0.19-14.77-0.06-22.15
		c0.05-3.03-1.04-4.18-4.07-4.11c-4.53,0.1-9.11,0.29-13.58-0.24c-12.65-1.5-22.31-10.52-25.86-23.65
		c-0.51-1.87-1.01-3.74-1.52-5.61C10.89,283.17,10.89,269.69,10.89,256.22z M104.24,272.38c0-9.71,0.01-19.42-0.01-29.13
		c0-2.07-0.03-4.12-0.66-6.15c-2.05-6.62-6.73-10.7-13.27-11.64c-7.96-1.14-15.95-0.8-21.24,6.95c-1.64,2.4-2.84,4.97-2.84,7.92
		c-0.03,20.98-0.05,41.95-0.02,62.93c0.01,4.98,2.28,8.87,6.02,12.11c4.17,3.62,9.12,3.86,14.24,3.83
		c10.87-0.07,17.75-6.85,17.77-17.69C104.24,291.8,104.23,282.09,104.24,272.38z M48.12,276.34c-0.01,0-0.01,0-0.02,0
		c0-9.19,0.02-18.39-0.02-27.58c-0.01-1.62,0.3-3.4-2.04-4.02c-6.12-1.61-11.48,0.57-14.56,6.13c-1.72,3.11-2.64,6.45-2.64,10.03
		c0,9.84,0,19.68-0.04,29.52c-0.01,2.48,0.37,4.91,1.02,7.29c2.05,7.5,6.37,10.57,14.08,10.53c3.19-0.02,4.32-1.12,4.27-4.32
		C48.02,294.73,48.12,285.53,48.12,276.34z"/>
	<path class="st0" d="M409,298.98c-1.59,4.51-2.89,9.1-5.54,13.2c-5.96,9.22-14.26,14.02-25.29,14c-2.2,0-4.41,0.09-6.61,0.06
		c-1.97-0.03-3.42,0.75-4.67,2.28c-7.22,8.82-16.91,12.8-27.96,13.07c-11.27,0.27-21.42-2.93-29.37-11.66
		c-6.9-7.57-9.28-16.65-9.36-26.46c-0.15-18.01-0.1-36.02,0.04-54.03c0.15-19.16,9.77-32.81,27.04-37
		c15.28-3.71,29.09-0.57,39.69,12.03c1.41,1.68,3.04,2.18,5.1,2.19c3.75,0.01,7.57-0.25,11.25,0.32
		c12.87,1.99,19.96,10.53,24.14,22.12c0.57,1.58,1.03,3.2,1.55,4.8C409,268.92,409,283.95,409,298.98z M356.83,276.13
		c-0.02,0-0.04,0-0.06,0c0-9.97,0.02-19.94-0.01-29.91c-0.01-3.87-1.1-7.39-3.66-10.39c-5.32-6.22-14.81-8.56-23.07-5.66
		c-7.42,2.6-11.81,9.27-11.83,18.27c-0.04,18.77-0.06,37.55,0.01,56.32c0.04,11.49,7.73,19.02,19.11,18.93
		c12.2-0.09,19.43-7.04,19.5-18.81C356.87,295.3,356.83,285.72,356.83,276.13z M374.83,276.38c0.01,0,0.01,0,0.02,0
		c0,9.19,0.11,18.39-0.05,27.58c-0.06,3.53,1.43,4.5,4.68,4.25c5.25-0.39,10.49-5.12,11.28-11.64c1.61-13.39,1.61-26.86,0.04-40.27
		c-0.48-4.15-2.93-7.42-6.18-10.01c-2.57-2.05-5.67-2.3-8.45-1.17c-2.34,0.95-1.27,3.68-1.3,5.63
		C374.78,259.29,374.83,267.83,374.83,276.38z"/>
	<path class="st0" d="M208.25,26.12c-39.4,0.87-73.83,14.48-103.19,40.72c-34.86,31.15-54.33,70.62-61.94,116.3
		c-1.79,10.72-2.43,21.59-2.62,32.48c-0.07,3.74-1.4,6.83-5.06,8.48c-3.56,1.61-6.85,1.02-9.82-1.37c-2.69-2.17-3.1-5.28-3.07-8.44
		c0.1-12.32,1.29-24.55,3.32-36.69c5.1-30.43,15.76-58.83,32.93-84.44c27.36-40.82,64.15-69.16,112.52-80.64
		c32.31-7.67,64.26-5.3,95.53,6.07c23.23,8.44,43.75,21.35,61.67,38.19c27.08,25.47,45.71,56.34,56.66,91.84
		c6.64,21.55,10.17,43.57,9.96,66.16c-0.06,6.07-3.16,9.95-8.27,10.28c-5.06,0.33-9.32-3.61-9.57-9.65
		c-0.37-9.05-0.54-18.1-1.74-27.1c-3.54-26.36-11.66-51.14-24.77-74.33c-13.55-23.97-31.32-44.07-53.93-59.75
		c-22.91-15.89-48.18-25.47-76.18-27.41C216.54,26.52,212.42,26.04,208.25,26.12z"/>
</g>
</svg>
