<?xml version="1.0" encoding="utf-8"?>
<!-- Generator: Adobe Illustrator 23.0.1, SVG Export Plug-In . SVG Version: 6.00 Build 0)  -->
<svg version="1.1" id="Layer_1" xmlns="http://www.w3.org/2000/svg" xmlns:xlink="http://www.w3.org/1999/xlink" x="0px" y="0px"
	 viewBox="0 0 551 455" style="enable-background:new 0 0 551 455;" xml:space="preserve">
<style type="text/css">
	.st0{fill:#757575;}
</style>
<g>
	<path class="st0" d="M256.78,14.25c64.77,0,129.54,0.05,194.31-0.05c12.21-0.02,23.24,2.59,32,11.71
		c6.95,7.24,11.16,15.66,11.15,25.93c-0.01,101.4,0.12,202.8-0.08,304.2c-0.04,21.27-16.33,37.24-37.89,38.47
		c-2.34,0.13-4.69,0.05-7.03,0.05c-128.36,0-256.73-0.01-385.09,0.04c-6.78,0-13.48-0.28-19.92-2.6
		c-15.8-5.71-25.49-19.68-25.52-38.24c-0.13-99.64-0.19-199.29,0.02-298.93c0.05-25.13,16.3-40.48,41.99-40.52
		c65.35-0.1,130.71-0.03,196.06-0.03C256.78,14.27,256.78,14.26,256.78,14.25z M256.33,363.43c64.47,0,128.94,0.01,193.41-0.01
		c12.05,0,14.26-2.18,14.26-14.34c0.02-96.41,0.02-192.82,0-289.24c0-12.57-2.32-14.86-14.79-14.86
		c-128.35-0.01-256.71-0.01-385.06,0c-13.11,0-15.05,1.97-15.06,15.4c-0.01,96.12-0.01,192.24,0,288.36
		c0,12.86,1.85,14.69,14.71,14.69C127.97,363.43,192.15,363.43,256.33,363.43z"/>
	<path class="st0" d="M306.1,438.67c-63.87,0-127.73,0.04-191.6-0.03c-19.74-0.02-34.37-10.33-39.66-27.26
		c-1.9-6.09-2.17-10.25,6.38-9.35c5.51,0.58,11.12,0.07,16.69,0.13c1.73,0.02,4.37-0.35,5.05,0.58c5.83,8.06,14.3,5.52,21.88,5.53
		c122.75,0.11,245.5,0.08,368.26,0.08c16.46,0,17.21-0.78,17.21-17.51c0-93.16,0.01-186.33-0.02-279.49
		c0-6.04,1.28-12.52-5.78-16.21c-2.1-1.1-1.31-3.68-1.34-5.66c-0.08-4.69-0.03-9.37-0.03-14.06c0.01-12.43,0.41-12.96,11.89-8.38
		c14.8,5.9,23.73,16.68,25.03,33c0.25,3.21,0.22,6.44,0.22,9.66c0.01,94.63-0.6,189.26,0.36,283.88
		c0.31,30.56-20.52,45.8-45.58,45.41C432.08,438.03,369.08,438.67,306.1,438.67z"/>
	<path class="st0" d="M255.8,331.13c-54.79,0-109.59-0.15-164.38,0.17c-7.35,0.04-9.67-1.91-9.26-9.26
		c0.72-12.84-2.83-27.11,1.7-38.21c4.4-10.77,16.67-18.36,25.56-27.27c15.52-15.56,31.24-30.92,46.54-46.69
		c4.01-4.14,6.28-4.13,10.19,0.03c9.23,9.81,19.24,18.9,28.41,28.76c4.57,4.92,7.3,5.28,12.32,0.21
		c37.51-37.91,75.33-75.5,113.09-113.16c10.05-10.02,7.59-8.5,15.8-0.35c29.95,29.72,59.69,59.65,89.68,89.33
		c3.83,3.79,5.49,7.56,5.45,13.02c-0.26,31.35-0.42,62.71,0.08,94.05c0.13,8.03-2.41,9.58-9.91,9.54
		C365.97,330.98,310.89,331.13,255.8,331.13z"/>
	<path class="st0" d="M82.34,125.26c-0.1-26.97,20.1-47.28,47.03-47.27c26.52,0.01,46.69,20.1,46.81,46.62
		c0.12,26.93-20.22,47.39-47.03,47.3C102.64,171.82,82.45,151.7,82.34,125.26z"/>
</g>
</svg>
