<?xml version="1.0" encoding="utf-8"?>
<!-- Generator: Adobe Illustrator 23.0.1, SVG Export Plug-In . SVG Version: 6.00 Build 0)  -->
<svg version="1.1" id="Layer_1" xmlns="http://www.w3.org/2000/svg" xmlns:xlink="http://www.w3.org/1999/xlink" x="0px" y="0px"
	 viewBox="0 0 486 455" style="enable-background:new 0 0 486 455;" xml:space="preserve">
<style type="text/css">
	.st0{fill:#757575;}
</style>
<g>
	<path class="st0" d="M156.56,387.9c-3.13-0.43-3.06-2.88-3.69-4.58c-8.13-22.11-21.66-40.09-40.9-53.73
		c-8.07-5.72-16.82-10.1-26.1-13.5c-6.09-2.23-6.15-2.66-1.44-7.37c73.32-73.35,146.69-146.66,219.92-220.09
		c3.7-3.71,5.92-3.9,9.66-0.1c22.11,22.42,44.37,44.7,66.79,66.82c3.82,3.77,2.84,5.91-0.44,9.17
		c-31.87,31.68-63.6,63.5-95.38,95.27c-41.28,41.28-82.56,82.55-123.85,123.82C159.6,385.14,157.97,386.58,156.56,387.9z"/>
	<path class="st0" d="M460.4,73.43c0.04,7.52-2.44,13.16-6.96,17.74c-14.8,14.99-29.77,29.81-44.57,44.79
		c-2.53,2.56-4.35,2.65-6.95,0.04c-22.92-23.04-45.9-46.02-68.95-68.93c-2.58-2.56-2.59-4.39,0-6.95
		c14.98-14.8,29.65-29.94,44.83-44.54c10.25-9.86,22.61-9.46,32.6,0.43c14.4,14.25,28.66,28.65,43.01,42.96
		C457.7,63.24,460.6,68.08,460.4,73.43z"/>
	<path class="st0" d="M134.91,399.65c0.08,3.65-2.96,3.87-5.3,4.68c-19.91,6.85-39.84,13.62-59.77,20.44
		c-11.01,3.76-22,7.57-33.01,11.32c-1.47,0.5-3.21,1.59-4.52,0.34c-1.33-1.27-0.22-3.08,0.27-4.5
		c10.64-31.11,21.38-62.2,31.99-93.32c1.29-3.78,3.23-4.84,7.19-4.04c29.08,5.94,56.52,33.13,62.47,62.15
		C134.44,397.69,134.68,398.66,134.91,399.65z"/>
</g>
</svg>
