<?xml version="1.0" encoding="utf-8"?>
<!-- Generator: Adobe Illustrator 23.0.1, SVG Export Plug-In . SVG Version: 6.00 Build 0)  -->
<svg version="1.1" id="Layer_1" xmlns="http://www.w3.org/2000/svg" xmlns:xlink="http://www.w3.org/1999/xlink" x="0px" y="0px"
	 viewBox="0 0 486 455" style="enable-background:new 0 0 486 455;" xml:space="preserve">
<style type="text/css">
	.st0{fill:#757575;}
</style>
<g>
	<path class="st0" d="M245.11,442.98c-52.61,0-105.23,0.06-157.84-0.02c-36.26-0.05-59.19-22.83-59.21-58.93
		c-0.06-105.44-0.08-210.89,0.01-316.33C28.09,31.54,50.9,8.84,87.24,8.81c105.87-0.08,211.73-0.07,317.6,0.01
		c33.67,0.03,57.28,23.36,57.32,56.97c0.13,107.13,0.12,214.27-0.03,321.4c-0.04,31.85-24.03,55.62-56.01,55.71
		c-53.67,0.16-107.34,0.04-161.02,0.04C245.11,442.95,245.11,442.97,245.11,442.98z M433.76,226.19c0-53.45,0.03-106.89-0.02-160.34
		c-0.01-17.85-10.58-28.6-28.29-28.61c-107.1-0.04-214.2-0.03-321.3,0.01C67.28,37.26,56.51,48.18,56.5,65.19
		c-0.04,106.68-0.04,213.36-0.02,320.04c0,18.92,10.52,29.28,29.57,29.28c106.05,0.01,212.09,0.01,318.14,0
		c19.37,0,29.57-10.34,29.57-29.88C433.77,331.81,433.76,279,433.76,226.19z"/>
	<path class="st0" d="M95.46,225.93c0-33.38-0.02-66.75,0.01-100.13c0.01-8.59,0.41-8.97,8.92-9.01c12.67-0.06,25.35-0.06,38.02,0
		c8.45,0.04,8.95,0.53,8.95,9.02c0.02,43.73,0,87.46-0.01,131.18c0,23.24,0.02,46.47-0.01,69.71c-0.01,7.57-0.72,8.25-8.4,8.26
		c-13.31,0.02-26.62-0.23-39.92,0.08c-5.82,0.13-7.69-1.95-7.66-7.72C95.56,293.53,95.46,259.73,95.46,225.93z"/>
	<path class="st0" d="M313.62,252.48c0,24.71-0.15,49.43,0.11,74.14c0.07,6.36-2.13,8.6-8.46,8.43c-13.3-0.34-26.61-0.24-39.92-0.04
		c-5.25,0.08-7.71-1.62-7.69-7.24c0.12-50.06,0.12-100.12,0.03-150.18c-0.01-4.96,1.94-6.65,6.81-6.58
		c13.94,0.21,27.88,0.27,41.82-0.04c5.57-0.12,7.41,1.95,7.37,7.37C313.52,203.06,313.61,227.77,313.62,252.48z"/>
	<path class="st0" d="M232.51,280.41c0,15.62-0.15,31.24,0.08,46.85c0.08,5.73-2.1,7.89-7.82,7.79
		c-13.71-0.25-27.43-0.22-41.15-0.06c-5.14,0.06-7.12-1.99-7.1-7.14c0.13-31.87,0.14-63.73,0-95.6c-0.02-5.28,2.01-6.97,7.14-6.88
		c13.71,0.25,27.44,0.34,41.15-0.02c5.81-0.15,7.85,1.8,7.76,7.58c-0.25,15.82-0.09,31.65-0.09,47.48
		C232.48,280.41,232.49,280.41,232.51,280.41z"/>
	<path class="st0" d="M338.95,306.41c0-7.17,0.04-14.34-0.02-21.51c-0.03-3.93,1.77-5.8,5.73-5.79c14.76,0.04,29.52,0.04,44.28,0
		c3.93-0.01,5.82,1.79,5.81,5.74c-0.03,14.76-0.05,29.52-0.01,44.28c0.01,3.93-1.78,5.8-5.74,5.79
		c-14.76-0.03-29.52-0.03-44.28,0.03c-4.42,0.02-5.87-2.34-5.82-6.39c0.09-7.38,0.02-14.76,0.02-22.14
		C338.93,306.41,338.94,306.41,338.95,306.41z"/>
</g>
</svg>
