<?xml version="1.0" encoding="utf-8"?>
<!-- Generator: Adobe Illustrator 23.0.1, SVG Export Plug-In . SVG Version: 6.00 Build 0)  -->
<svg version="1.1" id="Layer_1" xmlns="http://www.w3.org/2000/svg" xmlns:xlink="http://www.w3.org/1999/xlink" x="0px" y="0px"
	 viewBox="0 0 416 335" style="enable-background:new 0 0 416 335;" xml:space="preserve">
<style type="text/css">
	.st0{fill:#757575;}
</style>
<g>
	<path class="st0" d="M338.82,271.22c0,8.46,0.03,15.64-0.01,22.83c-0.05,9.07-4.68,14.83-13.61,16.71
		c-18.87,3.98-37.91,6.9-57.12,8.78c-22.87,2.25-45.78,3.32-68.74,2.93c-36.23-0.62-72.19-4.04-107.68-11.67
		c-9.13-1.96-13.66-7.33-13.7-16.55c-0.06-13.95-0.15-27.9,0.01-41.84c0.45-38.47,31.51-72.75,69.63-77.42
		c7.05-0.86,12.63,0.11,18.82,4.3c26.08,17.68,62.54,16.36,87.63-2.46c2.55-1.91,5.1-2.6,8.19-2.52
		c35.32,0.81,68.39,29.35,75.02,64.5C339.38,250.01,338.51,261.26,338.82,271.22z M87.71,270.43c0,8.58-0.01,15.62,0,22.67
		c0.01,6.45,0.84,7.38,7.13,8.76c35.35,7.75,71.23,10.45,107.29,10.99c26.61,0.4,53.18-1.07,79.62-4.24
		c13.69-1.64,27.29-3.91,40.76-6.89c5.51-1.22,6.5-2.47,6.53-8.02c0.02-4.51,0.03-9.01,0-13.52c-0.05-10.98,0.91-22.09-0.38-32.93
		c-4.04-33.91-27.77-57.7-61.59-62.87c-3.03-0.46-5.94-0.6-8.84,1.45c-27.98,19.8-67.46,20.85-96.35,2.12
		c-5.28-3.42-9.96-4.05-15.77-2.99c-27.68,5.07-50.33,26.25-56.59,52.94C86.89,249.19,88.03,260.6,87.71,270.43z"/>
	<path class="st0" d="M208.54,323.69c-3.09,0-6.16-0.03-9.21-0.08c-39.13-0.67-74.42-4.5-107.9-11.7
		c-9.65-2.08-14.56-8.02-14.6-17.66l-0.02-5.11c-0.05-12.04-0.11-24.5,0.03-36.75c0.45-38.59,32.14-73.83,70.63-78.55
		c7.8-0.96,13.48,0.34,19.6,4.49c25.27,17.14,61.57,16.12,86.3-2.43c2.64-1.98,5.42-2.79,8.91-2.75
		c35.92,0.82,69.35,29.56,76.12,65.43c1.54,8.14,1.52,16.13,1.5,23.87c-0.01,2.99-0.01,5.92,0.08,8.73l0,0.04l0.01,7.75
		c0.01,5.3,0.01,10.19-0.01,15.09c-0.05,9.67-5.07,15.83-14.52,17.83c-18.73,3.95-37.99,6.91-57.24,8.8
		C247.84,322.68,227.82,323.69,208.54,323.69z M151.99,175.84c-1.34,0-2.75,0.09-4.24,0.28c-37.4,4.59-68.18,38.82-68.62,76.3
		c-0.14,12.23-0.09,24.68-0.03,36.71l0.02,5.11c0.04,8.66,4.1,13.56,12.8,15.43c33.33,7.17,68.48,10.98,107.46,11.65
		c21.99,0.37,45.07-0.61,68.61-2.92c19.17-1.88,38.34-4.83,56.99-8.76c8.38-1.77,12.66-7.02,12.7-15.6
		c0.03-4.89,0.02-9.78,0.01-15.07l-0.01-7.73c-0.09-2.84-0.08-5.78-0.08-8.79c0.02-7.63,0.03-15.52-1.46-23.44
		c-6.58-34.85-39.04-62.77-73.92-63.57c-3.02-0.03-5.25,0.62-7.48,2.3c-25.48,19.12-62.9,20.16-88.96,2.49
		C161.33,177.22,157.12,175.84,151.99,175.84z M210.61,314.06c-2.84,0-5.66-0.02-8.48-0.06c-41.93-0.63-76.1-4.13-107.52-11.02
		c-6.89-1.51-8.02-2.89-8.03-9.88c-0.01-4.82-0.01-9.64-0.01-14.96l0-7.75c0.09-2.7,0.06-5.49,0.04-8.45
		c-0.07-7.87-0.14-16.01,1.81-24.3c6.34-27.04,29.44-48.66,57.5-53.8c6.42-1.17,11.38-0.23,16.6,3.16
		c28.3,18.36,67.39,17.49,95.07-2.09c3.36-2.37,6.76-2.09,9.68-1.65c34.52,5.28,58.49,29.75,62.56,63.87
		c0.9,7.55,0.71,15.32,0.53,22.83c-0.08,3.41-0.16,6.82-0.15,10.23c0.02,4.51,0.02,9.02,0,13.53c-0.03,6.1-1.42,7.81-7.43,9.13
		c-13.21,2.91-26.96,5.24-40.87,6.9C257.98,312.61,234.04,314.06,210.61,314.06z M88.86,270.45l0,7.69c0,5.31,0,10.13,0.01,14.95
		c0.01,5.87,0.42,6.38,6.24,7.65c31.27,6.86,65.29,10.34,107.06,10.96c26.02,0.39,52.76-1.03,79.46-4.23
		c13.84-1.66,27.52-3.97,40.65-6.87c4.98-1.1,5.61-1.87,5.64-6.91c0.03-4.5,0.03-9.01,0-13.51c-0.02-3.42,0.07-6.86,0.15-10.29
		c0.18-7.43,0.36-15.12-0.52-22.51c-3.94-33.05-27.17-56.76-60.63-61.88c-3.16-0.48-5.61-0.44-8.01,1.26
		c-28.42,20.11-68.57,20.99-97.63,2.15c-4.75-3.08-9.07-3.9-14.94-2.82c-27.17,4.98-49.55,25.9-55.68,52.07
		c-1.88,8.02-1.81,16.02-1.75,23.76C88.92,264.9,88.95,267.71,88.86,270.45z"/>
</g>
<g>
	<path class="st0" d="M208.14,166.49c-16.6-0.16-29.71-7.92-40.68-19.53c-17.77-18.79-28.41-41.27-29.05-67.1
		c-0.69-27.55,12.43-48.47,36.6-61.61c42.06-22.87,93.86,2.05,102.57,49.05c3.13,16.85-1.01,32.77-7.56,48.08
		c-7.09,16.57-17.19,31.02-32.25,41.46C228.88,162.99,219.16,166.72,208.14,166.49z M210.68,156.79c6.43,0.04,13.51-2.09,21.84-8.09
		c17.96-12.93,28.4-30.9,33.93-51.95c3.29-12.5,3.59-24.98-0.77-37.4c-8.51-24.29-34.13-42.64-63.96-39.48
		c-30.9,3.27-54.96,29.35-53.77,60.08c0.93,24.07,10.71,44.75,27.73,61.71C184.53,150.48,194.89,156.89,210.68,156.79z"/>
	<path class="st0" d="M209.09,167.65c-0.32,0-0.64,0-0.96-0.01c-15.41-0.15-28.98-6.66-41.5-19.89
		c-18.86-19.94-28.74-42.78-29.37-67.86c-0.68-27.38,12.18-49.04,37.19-62.64c20.31-11.04,43.88-11.68,64.69-1.77
		c20.9,9.96,35.32,28.77,39.56,51.62c2.73,14.7,0.3,30.18-7.63,48.74c-7.9,18.47-18.58,32.19-32.65,41.95
		C228.84,164.41,219.23,167.65,209.09,167.65z M208.52,10.76c-11.3,0-22.58,2.84-32.98,8.49c-24.21,13.17-36.66,34.11-36,60.57
		c0.61,24.5,10.28,46.83,28.74,66.35c12.07,12.76,25.11,19.03,39.86,19.18h0.01c9.99,0.22,19.47-2.89,28.95-9.46
		c13.71-9.5,24.13-22.9,31.85-40.96c7.85-18.37,10.16-33,7.49-47.43c-4.1-22.11-18.06-40.33-38.29-49.97
		C228.67,13.01,218.59,10.76,208.52,10.76z M210.31,157.94c-17.64,0-28.2-8.25-35.44-15.47c-17.71-17.64-27.15-38.66-28.07-62.47
		c-1.2-30.97,22.87-57.88,54.79-61.26c28.53-3.03,55.93,13.9,65.16,40.24c4.16,11.85,4.42,24.31,0.79,38.07
		c-6.08,23.11-17.32,40.31-34.37,52.59c-7.76,5.58-15.06,8.3-22.33,8.3C210.67,157.94,210.49,157.94,210.31,157.94z M208.19,20.68
		c-2.11,0-4.23,0.11-6.35,0.34c-30.73,3.26-53.9,29.13-52.75,58.9c0.9,23.22,10.12,43.73,27.4,60.94c6.93,6.9,17.02,14.8,33.83,14.8
		c0.12,0,0.24,0,0.36,0h0.01c0.06,0,0.11,0,0.17,0c6.77,0,13.64-2.58,20.99-7.87c16.6-11.95,27.56-28.73,33.49-51.31
		c3.5-13.31,3.26-25.33-0.74-36.74C256.4,36.35,233.3,20.68,208.19,20.68z"/>
</g>
<g>
	<path class="st0" d="M344.46,93.2c0.07-34.11-27.15-56.79-56.13-51.55c-1.52,0.27-3.07,0.43-4.61,0.52
		c-2.38,0.15-4.22-0.76-4.75-3.23c-0.57-2.64,0.84-4.3,3.2-5.22c4.29-1.66,8.87-1.91,13.32-1.88c31.22,0.22,54.45,21.85,58.24,49.16
		c1.84,13.21-1.03,25.83-6.33,37.86c-6.96,15.81-16.69,29.4-32.37,37.77c-16.29,8.7-33.1,4.82-46.8-6.31
		c-2.2-1.79-2.35-4.14-0.82-6.42c1.5-2.24,3.75-2.42,5.99-1.31c1.76,0.87,3.34,2.09,5,3.15c11.61,7.38,23.58,7.85,34.98,0.26
		C333.78,132.42,342.85,112.37,344.46,93.2z"/>
	<path class="st0" d="M296.55,162.59c-9.84,0-19.74-3.82-29.03-11.37c-2.59-2.1-2.98-5.07-1.05-7.95c1.7-2.53,4.48-3.16,7.45-1.7
		c1.27,0.63,2.43,1.42,3.56,2.19c0.51,0.35,1.02,0.7,1.55,1.03c11.59,7.37,22.94,7.46,33.73,0.27
		c17.88-11.92,28.74-30.35,30.56-51.9c0.02-16.25-6.49-31.04-17.87-40.56c-10.29-8.62-23.75-12.2-36.91-9.81
		c-1.39,0.25-2.89,0.42-4.74,0.54c-3.18,0.19-5.33-1.31-5.94-4.13c-0.64-2.99,0.75-5.3,3.9-6.52c4.6-1.78,9.51-2,13.74-1.96
		c30.39,0.21,55.36,21.3,59.37,50.15c1.7,12.24-0.4,24.82-6.41,38.48c-8.16,18.52-18.6,30.7-32.87,38.32
		C309.4,160.95,302.99,162.59,296.55,162.59z M270.87,143.07c-1.01,0-1.85,0.49-2.5,1.47c-1.27,1.9-1.08,3.54,0.59,4.9
		c14.61,11.87,30.78,14.07,45.54,6.19c13.8-7.37,23.92-19.19,31.86-37.22c5.84-13.26,7.88-25.44,6.24-37.24
		c-3.85-27.71-27.88-47.97-57.12-48.17c-4-0.04-8.66,0.16-12.9,1.81c-2.76,1.07-2.74,2.74-2.49,3.91c0.23,1.08,0.84,2.48,3.56,2.33
		c1.76-0.11,3.18-0.27,4.48-0.51c13.83-2.51,27.97,1.25,38.79,10.31c11.91,9.97,18.73,25.41,18.69,42.37l0,0.09
		c-1.87,22.29-13.08,41.34-31.57,53.66c-11.45,7.63-23.98,7.55-36.23-0.24c-0.54-0.34-1.07-0.71-1.6-1.07
		c-1.11-0.76-2.16-1.47-3.29-2.03C272.16,143.26,271.49,143.07,270.87,143.07z"/>
</g>
<g>
	<path class="st0" d="M72.06,87.01c1.31,21.44,9.62,39.82,26.42,53.89c13.46,11.28,27.7,11.6,42.32,1.62c0.7-0.48,1.38-1,2.14-1.36
		c2.39-1.13,4.75-1.18,6.42,1.15c1.66,2.33,1.1,4.74-0.99,6.41c-9.96,7.94-21.05,12.61-34.06,10.4
		c-13.84-2.35-24.07-10.53-32.49-21.21c-10.91-13.85-17.33-29.6-18.88-47.18c-2.52-28.52,19.63-56.01,48.19-60.16
		c6.6-0.96,13.17-1.29,19.74,0.01c1.24,0.25,2.49,0.52,3.69,0.91c2.6,0.85,4.09,2.7,3.62,5.43c-0.45,2.63-2.51,3.6-5.04,3.5
		c-4.35-0.18-8.64-1.01-13.04-0.98c-23.01,0.15-42.16,15.5-47.03,38C72.41,80.44,72.4,83.59,72.06,87.01z"/>
	<path class="st0" d="M120.69,160.82c-2.18,0-4.37-0.19-6.58-0.56c-12.55-2.14-23.41-9.21-33.19-21.64
		c-11.14-14.14-17.58-30.22-19.13-47.79c-2.56-29.03,19.95-57.14,49.16-61.4c7.87-1.14,14.27-1.14,20.13,0.03
		c1.22,0.24,2.53,0.52,3.82,0.94c3.29,1.07,4.93,3.58,4.39,6.71c-0.51,2.97-2.74,4.57-6.21,4.45c-1.91-0.08-3.82-0.28-5.67-0.48
		c-2.4-0.25-4.89-0.49-7.31-0.5c-22.7,0.15-41.15,15.06-45.92,37.1c-0.42,1.95-0.57,4-0.72,6.17c-0.07,1.04-0.15,2.09-0.25,3.18
		c1.35,21.84,10.1,39.67,26.01,52.99c12.87,10.78,26.65,11.31,40.94,1.56l0.43-0.3c0.58-0.41,1.18-0.83,1.87-1.15
		c3.26-1.53,6.04-0.99,7.84,1.52c1.94,2.71,1.47,5.84-1.21,7.97C139.68,157.12,130.33,160.82,120.69,160.82z M121.7,30.87
		c-3.18,0-6.62,0.27-10.42,0.83c-28.05,4.08-49.67,31.07-47.21,58.93c1.51,17.12,7.78,32.79,18.64,46.57
		c9.55,12.12,19.65,18.73,31.78,20.8c11.32,1.94,22.17-1.4,33.16-10.16c1.72-1.37,2-3.14,0.77-4.85c-0.72-1.01-2.02-2.18-5-0.78
		c-0.51,0.24-1,0.59-1.53,0.95l-0.45,0.31c-15.24,10.4-29.95,9.83-43.7-1.69c-16.43-13.76-25.45-32.17-26.83-54.7l-0.01-0.09
		l0.01-0.09c0.11-1.1,0.18-2.16,0.25-3.2c0.16-2.25,0.3-4.38,0.76-6.49c5-23.11,24.35-38.75,48.15-38.9
		c2.6-0.01,5.11,0.25,7.57,0.51c1.81,0.19,3.69,0.39,5.53,0.46c2.27,0.1,3.56-0.76,3.87-2.55c0.35-2.02-0.61-3.42-2.84-4.15
		c-1.18-0.38-2.4-0.65-3.55-0.88C127.84,31.15,124.9,30.87,121.7,30.87z"/>
</g>
<g>
	<path class="st0" d="M403.84,246.16c0,5.49,0.06,10.99-0.02,16.48c-0.11,8.26-3.85,12.91-11.85,14.57
		c-12.4,2.56-24.89,4.63-37.48,6.04c-3.29,0.37-5.89-0.48-6.42-3.82c-0.55-3.43,1.93-5.12,5.01-5.59c11.4-1.73,22.83-3.26,34.14-5.6
		c6.83-1.41,7.03-1.4,6.87-8.52c-0.27-12.38,0.8-24.77-0.74-37.13c-2.8-22.46-23.11-42.87-45.64-46.13
		c-5.14-0.74-9.47-0.61-13.74,2.9c-3.68,3.03-8.3,4.74-12.89,6.18c-2.92,0.91-5.87,0.74-7.1-2.59c-1.2-3.24,0.63-5.51,3.58-6.64
		c5.84-2.24,11.19-5.29,16.15-9.05c3.15-2.39,6.82-1.57,10.22-1.22c34.62,3.56,59.94,31.78,59.91,66.6
		C403.84,237.14,403.84,241.65,403.84,246.16z"/>
	<path class="st0" d="M353.17,284.46c-4.71,0-5.94-2.97-6.24-4.86c-0.26-1.64,0.04-3.06,0.89-4.23c1.02-1.4,2.78-2.32,5.08-2.67
		l6.71-1c9-1.33,18.31-2.72,27.37-4.58c6.09-1.26,6.09-1.26,5.96-7.38c-0.09-4.22-0.03-8.5,0.03-12.64
		c0.12-8.01,0.24-16.29-0.77-24.38c-2.71-21.71-22.75-41.96-44.67-45.14c-5.05-0.74-8.96-0.55-12.85,2.65
		c-3.86,3.17-8.66,4.94-13.27,6.39c-4.22,1.32-7.24,0.15-8.51-3.28c-1.29-3.5,0.34-6.6,4.24-8.1c5.56-2.13,10.9-5.12,15.87-8.9
		c3.13-2.38,6.67-1.95,9.8-1.58l1.24,0.14c35.34,3.63,60.97,32.12,60.94,67.74l0,13.52l0.01,5.28c0.01,3.74,0.02,7.48-0.03,11.22
		c-0.12,8.8-4.3,13.92-12.77,15.67c-13.19,2.72-25.49,4.7-37.59,6.06C354.1,284.44,353.62,284.46,353.17,284.46z M343.29,174.95
		c1.46,0,2.98,0.15,4.57,0.38c23.26,3.37,43.74,24.07,46.61,47.12c1.03,8.25,0.91,16.61,0.79,24.69c-0.06,4.12-0.12,8.38-0.03,12.56
		c0.16,7.5-0.34,8.13-7.63,9.63c-9.27,1.91-18.61,3.3-27.65,4.64l-6.71,1c-1.67,0.25-2.94,0.88-3.58,1.76
		c-0.49,0.67-0.64,1.49-0.48,2.52c0.25,1.57,1.06,3.33,5.17,2.86c12.03-1.34,24.25-3.31,37.38-6.02
		c7.46-1.54,10.83-5.69,10.94-13.46c0.05-3.73,0.04-7.45,0.03-11.18l-0.01-5.29l0-13.52c0.03-34.42-24.74-61.96-58.88-65.47
		l-1.27-0.14c-2.96-0.36-5.75-0.68-8.14,1.13c-5.15,3.91-10.68,7.01-16.44,9.21c-1.93,0.74-4,2.23-2.91,5.17
		c0.52,1.41,1.68,3.14,5.68,1.89c4.39-1.37,8.95-3.05,12.5-5.97C336.45,175.82,339.7,174.95,343.29,174.95z"/>
</g>
<g>
	<path class="st0" d="M12.94,245.95c0.08-9.28-0.33-18.55,1.43-27.77c5.63-29.49,33.61-52.6,63.65-52.37
		c2.17,0.02,4.16,0.24,5.91,1.72c4.35,3.69,9.4,6.16,14.71,8.12c3.2,1.18,5.76,3,4.26,6.86c-1.44,3.72-4.45,3.73-7.75,2.49
		c-4.76-1.8-9.47-3.79-13.5-6.89c-3.09-2.37-6.31-2.79-9.91-2.36c-27.23,3.22-48.91,27.41-49.09,54.87
		c-0.07,10.42,0.11,20.84-0.08,31.26c-0.07,3.69,1.44,5.39,4.9,6.05c10.78,2.05,21.57,3.98,32.46,5.33
		c1.25,0.16,2.51,0.36,3.74,0.61c2.92,0.58,5.18,1.97,4.65,5.35c-0.5,3.21-2.78,4.21-5.9,4c-7.6-0.49-15.08-1.77-22.57-3.01
		c-5.13-0.85-10.22-1.95-15.31-3.05c-7.56-1.64-11.41-6.21-11.59-13.9C12.84,257.5,12.95,251.72,12.94,245.95z"/>
	<path class="st0" d="M63.17,284.4c-0.26,0-0.52-0.01-0.8-0.03c-7.3-0.47-14.58-1.68-21.62-2.85l-1.07-0.18
		c-5.23-0.86-10.38-1.98-15.36-3.06c-8.1-1.75-12.3-6.8-12.49-14.99c-0.09-3.96-0.07-7.98-0.05-11.87c0.01-1.83,0.02-3.65,0.02-5.47
		v-0.01c0.01-1.72,0.01-3.43,0.01-5.15c-0.01-7.47-0.02-15.21,1.44-22.83c5.72-29.97,33.92-53.3,64.32-53.3c0.15,0,0.31,0,0.46,0
		c2.09,0.02,4.5,0.18,6.64,2c3.73,3.16,8.3,5.68,14.37,7.92c1.7,0.63,4.07,1.7,5.03,3.83c0.59,1.31,0.56,2.84-0.09,4.53
		c-1.02,2.64-3.45,5.33-9.22,3.14c-4.4-1.66-9.45-3.72-13.79-7.05c-2.54-1.95-5.25-2.59-9.08-2.13
		c-26.78,3.17-47.9,26.77-48.08,53.74c-0.03,4.21-0.02,8.42,0,12.63c0.02,6.11,0.04,12.42-0.07,18.64
		c-0.05,3.06,0.99,4.34,3.97,4.91c9.64,1.84,21.02,3.91,32.39,5.32c1.28,0.16,2.56,0.37,3.83,0.62c5.29,1.05,5.94,4.2,5.56,6.65
		C69.11,281.73,67.71,284.4,63.17,284.4z M14.09,245.95c0,1.83-0.01,3.65-0.02,5.48c-0.02,3.87-0.04,7.88,0.05,11.8
		c0.16,7.1,3.66,11.29,10.69,12.81c4.96,1.07,10.08,2.18,15.25,3.04l1.07,0.18c6.99,1.16,14.21,2.36,21.39,2.82
		c3.68,0.25,4.44-1.41,4.69-3.04c0.25-1.59,0-3.31-3.74-4.05c-1.21-0.24-2.44-0.44-3.66-0.59c-11.43-1.42-22.86-3.5-32.54-5.34
		c-4.11-0.78-5.9-3.01-5.83-7.2c0.11-6.19,0.09-12.5,0.07-18.59c-0.01-4.22-0.02-8.43,0-12.65c0.18-28.1,22.19-52.7,50.1-56
		c4.41-0.52,7.73,0.27,10.74,2.59c3.68,2.82,7.94,4.73,13.21,6.72c4.27,1.62,5.57-0.02,6.27-1.83c0.43-1.11,0.48-2.01,0.14-2.76
		c-0.45-1-1.67-1.86-3.73-2.62c-6.33-2.33-11.11-4.98-15.06-8.32c-1.4-1.19-3.02-1.44-5.18-1.45c-0.15,0-0.3,0-0.45,0
		c-29.34,0-56.55,22.51-62.07,51.44c-1.41,7.41-1.4,15.03-1.4,22.4C14.1,242.51,14.1,244.23,14.09,245.95z"/>
</g>
</svg>
