<?xml version="1.0" encoding="utf-8"?>
<!-- Generator: Adobe Illustrator 23.0.1, SVG Export Plug-In . SVG Version: 6.00 Build 0)  -->
<svg version="1.1" id="Layer_1" xmlns="http://www.w3.org/2000/svg" xmlns:xlink="http://www.w3.org/1999/xlink" x="0px" y="0px"
	 viewBox="0 0 438 455" style="enable-background:new 0 0 438 455;" xml:space="preserve">
<style type="text/css">
	.st0{fill:#757575;}
</style>
<g>
	<path class="st0" d="M139.6,436.03c-36,0-72.01,0-108.01-0.01c-5.71,0-5.81-0.1-5.82-5.73c-0.01-29.96-0.2-59.92,0.07-89.87
		c0.16-17.88,6.91-33.79,16.74-48.4c16.23-24.11,38.16-41.9,63.18-56.19c7.77-4.44,15.79-8.34,24.06-11.74
		c2.67-1.1,3.23-1.87,0.81-4.1c-26.71-24.51-39.38-54.95-38.08-91.16c1.87-51.82,43.62-98.58,94.76-106.23
		c50.19-7.51,94.89,14.11,119.74,58.19c8.14,14.44,12.53,30.11,13.43,46.72c1.94,35.92-10.24,66.23-36.21,91.02
		c-2.3,2.19-2.31,3.14,0.79,4.34c15.08,5.79,29.12,13.53,42.45,22.65c3.33,2.28,3.44,4.02,1.1,7.14c-5.58,7.43-5.45,7.55-13.21,2.38
		c-18.36-12.24-38.38-20.75-59.59-26.58c-0.53-0.15-1.08-0.23-1.59-0.44c-1.24-0.5-3.18-0.38-3.46-1.83
		c-0.29-1.52,1.56-2.06,2.65-2.78c9.2-6.04,18.26-12.23,25.74-20.44c37.99-41.73,35.92-102.1-5.11-140.9
		c-16.32-15.44-35.96-23.81-58.37-25.97c-51.67-4.99-96.85,31.23-106.71,79.14c-7.59,36.88,7.75,77.7,38.64,99.68
		c4.59,3.26,9.38,6.23,14.05,9.38c0.99,0.66,2.66,1.07,2.51,2.43c-0.15,1.38-1.88,1.35-2.98,1.71
		c-14.15,4.51-28.14,9.44-41.31,16.41c-24.34,12.87-46.03,28.99-62.42,51.46c-11.04,15.14-17.54,31.65-16.92,50.96
		c0.72,22.38,0.17,44.79,0.17,67.19c0,6.64,0.01,6.65,6.54,6.65c66.1,0,132.2,0,198.3,0c1.51,0,3.02,0.05,4.53,0.02
		c2.57-0.05,3.69,1.09,3.64,3.75c-0.22,13.08,1.7,11.11-10.65,11.14C208.58,436.09,174.09,436.03,139.6,436.03z"/>
	<path class="st0" d="M339.38,283.96c42.21,0.03,76.55,34.46,76.48,76.68c-0.07,42.37-34.56,76.48-77.23,76.37
		c-42.2-0.11-76.28-34.49-76.23-76.91C262.45,318.02,296.94,283.92,339.38,283.96z M400.83,360.79
		c0.44-31.38-24.24-61.95-61.58-62.08c-37-0.12-61.67,30.17-61.89,61.41c-0.22,30.23,23.31,62,61.63,62.05
		C376.77,422.21,400.94,391.45,400.83,360.79z"/>
	<path class="st0" d="M331.68,339.72c0-3.57,0.05-7.14-0.02-10.71c-0.05-2.62,1.17-3.69,3.75-3.67c12.69,0.08,11.06-1.3,11.18,10.37
		c0.04,4.26,0.17,8.52-0.04,12.77c-0.18,3.5,0.96,4.96,4.66,4.81c6.31-0.24,12.63,0.01,18.95-0.09c2.75-0.05,3.99,0.89,3.94,3.79
		c-0.2,12.68,1.46,10.5-10.23,10.7c-4.53,0.08-9.06,0.1-13.59-0.01c-2.65-0.06-3.72,1.05-3.69,3.66c0.07,6.32-0.17,12.64,0.07,18.95
		c0.16,4.18-1.48,5.51-5.56,5.41c-10.68-0.25-9.35,0.9-9.44-9.59c-0.04-4.81-0.13-9.62,0.03-14.42c0.1-3.07-1.13-4.11-4.13-4.04
		c-6.45,0.15-12.91-0.07-19.36,0.08c-3.12,0.07-4.51-0.98-4.49-4.23c0.09-12.58-0.76-10.05,9.89-10.28c4.8-0.1,9.61-0.11,14.42,0.01
		c2.66,0.07,3.74-1,3.65-3.64c-0.11-3.29-0.03-6.59-0.03-9.89C331.66,339.72,331.67,339.72,331.68,339.72z"/>
</g>
</svg>
